<?xml version="1.0" encoding="UTF-8"?>
<svg id="Layer_1" data-name="Layer 1" xmlns="http://www.w3.org/2000/svg" viewBox="0 0 652.11 196.07">
  <defs>
    <style>
      .cls-1 {
        fill: #ffffff;
      }

      .cls-2 {
        fill: none;
      }

      .cls-3 {
        fill: #ffffff;
      }

      .cls-4 {
        fill: #8b6aff;
      }
    </style>
  </defs>
  <g>
    <path class="cls-2" d="M34.06,150.25c1.71,0,4.12.03,7.23.08,3.11.04,5.26.06,6.46.06,4.83,0,8.76-.42,11.8-1.27,3.03-.84,6.01-2.55,8.93-5.1,2.92-2.57,5.53-6.21,7.83-10.92,1.65-3.37,3.4-7.55,5.25-12.52l-37.43-.09-10.08,29.75Z"/>
    <path class="cls-2" d="M187.68,82.48c-1.49-1.96-5.02-2.94-10.6-2.94l-17.99.17-9.06,29.17h16.37c6.06,0,10.57-1.09,13.53-3.29,2.98-2.21,5.44-6.33,7.42-12.36,1.7-5.21,1.81-8.79.33-10.75Z"/>
    <path class="cls-2" d="M287.49,137.92c-.41,4.02-.92,8.08-1.55,12.19h3.76c1.64-3.61,3.83-7.72,6.58-12.33l10.02-16.68-17.25-.04-1.56,16.86Z"/>
    <path class="cls-2" d="M89.09,96.56c.92-4.32.96-7.78.11-10.4-.84-2.61-2.45-4.31-4.83-5.1-2.37-.8-5.88-1.21-10.54-1.21l-15.98.15-11.94,35.26,37.54.06c.12-.34.24-.68.36-1.03,2.61-7.51,4.37-13.42,5.28-17.73Z"/>
    <path class="cls-3" d="M57.85,80l15.98-.15c4.66,0,8.17.41,10.54,1.21,2.38.79,3.99,2.49,4.83,5.1.85,2.62.81,6.08-.11,10.4-.91,4.31-2.67,10.22-5.28,17.73-.12.35-.24.68-.36,1.03l24.45.04c4.54-13.47,6.49-24.09,5.84-31.86-.66-7.93-3.87-13.5-9.61-16.71-5.75-3.21-14.41-4.81-25.98-4.81s-24.51.45-37.87,1.35l-17.4,51.91,23.03.03,11.94-35.26Z"/>
    <path class="cls-3" d="M76.31,133.1c-2.3,4.71-4.91,8.35-7.83,10.92-2.92,2.55-5.9,4.26-8.93,5.1-3.04.85-6.97,1.27-11.8,1.27-1.2,0-3.35-.02-6.46-.06-3.11-.05-5.52-.08-7.23-.08l10.08-29.75h-3.52s-19.49-.06-19.49-.06l-15.65,46.67c14.67.9,27.68,1.35,39.02,1.36,8.92,0,16.21-.63,21.87-1.88,5.67-1.26,11.07-3.77,16.19-7.52,5.14-3.77,9.62-9.06,13.46-15.88,3.32-5.87,6.65-13.39,10.01-22.55l-24.47-.06c-1.85,4.97-3.6,9.15-5.25,12.52Z"/>
    <path class="cls-3" d="M200.4,110.77c4.33-4.17,7.65-9.91,9.96-17.23,3.67-11.53,2.91-19.67-2.29-24.44-5.22-4.76-14.39-7.15-27.5-7.15-16.58,0-29.63.45-39.13,1.35l-16.05,52.08,67.94.1c2.7-1.22,5.07-2.78,7.06-4.71ZM179.93,105.59c-2.96,2.2-7.47,3.29-13.53,3.29h-16.37l9.06-29.17,17.99-.17c5.58,0,9.11.98,10.6,2.94,1.48,1.96,1.37,5.54-.33,10.75-1.98,6.03-4.44,10.15-7.42,12.36Z"/>
    <path class="cls-3" d="M109.46,167.09h22.42l12.61-40.62,17.21.17c2.82,0,4.79.58,5.9,1.73,1.11,1.16,1.59,3.33,1.45,6.54l-.75,32.19h23.46l.19-31.9c.13-7.08-1.85-11.87-5.93-14.38l-62.26-.14-14.3,46.41Z"/>
    <polygon class="cls-3" points="256.51 63.32 233.22 63.32 221.61 115.52 244.76 115.55 256.51 63.32"/>
    <polygon class="cls-3" points="210.14 167.11 233.16 167.11 243.54 120.95 220.42 120.9 210.14 167.11"/>
    <polygon class="cls-3" points="294.38 63.32 270.9 63.32 268.46 115.59 289.55 115.62 294.38 63.32"/>
    <polygon class="cls-3" points="365.49 63.32 340.98 63.32 309.57 115.65 331.89 115.68 365.49 63.32"/>
    <path class="cls-3" d="M296.28,137.78c-2.75,4.61-4.94,8.72-6.58,12.33h-3.76c.63-4.11,1.14-8.17,1.55-12.19l1.56-16.86-20.84-.05-1.84,39.48c-.16,1.81.33,3.37,1.48,4.67,1.14,1.31,2.66,1.96,4.57,1.96h20.75c3.91,0,7.07-1.96,9.49-5.88l25.73-40.09-22.08-.05-10.02,16.68Z"/>
    <path class="cls-3" d="M375.99,121.25l-22.69-.05-6.68,21.39c-2.32,7.72-1.91,13.82,1.23,18.29,3.15,4.46,8.94,6.69,17.37,6.69,21.15,0,33.74-.25,42.76-1.27l6.13-17.25h-38.44c-2.81,0-4.65-.57-5.5-1.73-.86-1.15-.85-3.13.05-5.94l4.6-14.83h-.5l1.66-5.3Z"/>
    <path class="cls-3" d="M379.43,110.3h.26l1.45-4.89-1.45,4.89h.22l1.62-5.16,5.02-15.65c.95-3.11,2.16-5.24,3.62-6.4,1.47-1.15,3.67-1.73,6.62-1.73l42.74-.86,5.93-16.85c-13.49-.24-29.53-.79-51.66-.79-7.21,0-13.29,1.81-18.23,5.42-4.94,3.61-8.41,8.62-10.43,15.04l-10.11,32.4,22.7.03,1.71-5.45Z"/>
    <polygon class="cls-3" points="376.43 121.38 374.83 126.55 415.62 126.55 417.23 121.35 376.47 121.25 376.43 121.38"/>
    <polygon class="cls-3" points="418.94 115.81 420.65 110.3 379.9 110.3 378.19 115.75 418.94 115.81"/>
    <polygon class="cls-3" points="379.69 110.3 379.43 110.3 377.72 115.75 378.07 115.75 379.69 110.3"/>
    <polygon class="cls-3" points="376.47 121.25 376.43 121.25 376.4 121.37 376.43 121.25 375.99 121.25 374.33 126.55 374.83 126.55 376.43 121.38 376.47 121.25"/>
    <polygon class="cls-3" points="378.07 115.75 378.19 115.75 379.9 110.3 379.69 110.3 378.07 115.75"/>
    <path class="cls-1" d="M592.22,121.75v45.36h22.88v-45.31h0l-22.88-.05Z"/>
    <path class="cls-1" d="M615.1,116.1v-52.78h-22.88v52.75l22.88.03h0Z"/>
    <g>
      <path class="cls-2" d="M537.79,90.39c-1.2-5.01-1.91-8.27-2.1-9.77h-4.06c-.2,1-.55,2.6-1.06,4.81-.5,2.21-.9,3.87-1.19,4.96l-5.65,20.52h19.7l-5.64-20.52Z"/>
      <path class="cls-2" d="M621.19,146.04v-24.24h-6.09v45.31h-22.88v-45.36l-23.83-.05,13.91,45.45h-23.31l-7.24-26.23s.02-.05.03-.08l-3.8-13.25h-28.83l-3.24,11.83s0,.04,0,.05c0,.01-.02.02-.02.03l-.52,1.89s0,.03.01.04c-2.36,8.56-4.73,17.11-7.09,25.67h-23.48l13.95-45.57-81.55-.19-1.61,5.2h-40.79l-4.6,14.83c-.9,2.81-.91,4.79-.05,5.94.85,1.16,2.69,1.73,5.5,1.73h38.44l-6.13,17.25c-9.02,1.02-21.61,1.27-42.76,1.27-8.43,0-14.22-2.23-17.37-6.69-3.14-4.47-3.55-10.57-1.23-18.29l6.68-21.39-24.93-.06-25.73,40.09c-2.42,3.92-5.58,5.88-9.49,5.88h-20.75c-1.91,0-3.43-.65-4.57-1.96-1.15-1.3-1.64-2.86-1.48-4.67l1.84-39.48-24.66-.06-10.38,46.16h-23.02l10.28-46.21-34.4-.08c4.08,2.51,6.06,7.29,5.93,14.38l-.19,31.9h-23.46l.75-32.19c.14-3.21-.34-5.38-1.45-6.54-1.11-1.15-3.08-1.73-5.9-1.73l-17.21-.17-12.61,40.62h-22.42l14.3-46.41-17.73-.04c-3.36,9.16-6.69,16.68-10.01,22.55-3.84,6.82-8.32,12.11-13.46,15.88-5.12,3.75-10.52,6.26-16.19,7.52-5.66,1.25-12.95,1.88-21.87,1.88-11.34-.01-24.35-.46-39.02-1.36l15.65-46.67h-5.19s1.77-5.22,1.77-5.22h5.18s17.4-51.9,17.4-51.9c13.36-.9,25.98-1.35,37.87-1.35s20.23,1.6,25.98,4.81c5.74,3.21,8.95,8.78,9.61,16.71.66,7.77-1.29,18.4-5.84,31.86l17.49.03,16.05-52.08c9.5-.9,22.55-1.35,39.13-1.35,13.11,0,22.28,2.39,27.5,7.15,5.2,4.77,5.96,12.91,2.29,24.44-2.31,7.32-5.63,13.06-9.96,17.23-1.99,1.92-4.36,3.48-7.06,4.71l28.27.04,11.61-52.2h23.29l-11.75,52.23,23.7.03,2.44-52.27h23.48l-4.83,52.3,20.02.03,31.41-52.33h24.51l-33.6,52.36,23.13.03,10.11-32.4c2.02-6.42,5.49-11.43,10.43-15.04,4.94-3.61,11.02-5.42,18.23-5.42,22.13,0,38.17.55,51.66.79l-5.93,16.85-42.74.86c-2.95,0-5.15.58-6.62,1.73-1.46,1.16-2.67,3.29-3.62,6.4l-5.02,15.65-1.62,5.16h40.75l-1.71,5.51,81.55.12,14.27-46.62c.4-1.8,1.35-3.25,2.85-4.35,1.51-1.1,3.21-1.65,5.12-1.65h21.66c4.3,0,6.96,2,7.96,6l14.3,46.71,25.56.04v-52.75h22.88v52.78h6.09v-23.63l4.14,3.59V14.74H0v181.33h625.33v-53.62l-4.14,3.59Z"/>
      <path class="cls-1" d="M558.8,143.75l-5.7,1.63-1.31-4.55s-.02.05-.03.08l7.24,26.23h23.31l-13.91-45.45-15.93-.04,6.34,22.1Z"/>
      <path class="cls-1" d="M501.16,145.04l2.8-10.22-1.33-.38,3.69-12.88-7.54-.02-13.95,45.57h23.48c2.36-8.56,4.73-17.11,7.09-25.67,0-.01,0-.03-.01-.04l-1.92,7.01-12.31-3.37Z"/>
      <path class="cls-1" d="M515.93,139.47s0-.04,0-.05l-.02.09s.02-.02.02-.03Z"/>
      <path class="cls-1" d="M511.96,101.89l5.27,1.51-1.09,3.8,8.01,2.19-.42,1.52h0l5.65-20.52c.29-1.09.69-2.75,1.19-4.96.51-2.21.86-3.81,1.06-4.81h4.06c.19,1.5.9,4.76,2.1,9.77l5.64,20.52h6.77v5.08l16.46.02-14.3-46.71c-1-4-3.66-6-7.96-6h-21.66c-1.91,0-3.61.55-5.12,1.65-1.5,1.1-2.45,2.55-2.85,4.35l-14.27,46.62h7.43s4.03-14.04,4.03-14.04Z"/>
      <path class="cls-1" d="M549.62,132.36c.08-.25.1-.53.02-.85-.29-1.13-.7-2.21-1.08-3.31-.03-.2-.05-.41-.08-.62h-.49l3.8,13.25c.1-.19.16-.4.13-.62-.33-2.73-1.41-5.26-2.3-7.85Z"/>
      <path class="cls-1" d="M558.8,143.75l-6.34-22.1h-2.26s0,5.93,0,5.93h-1.72c.02.21.05.41.08.62.38,1.1.79,2.18,1.08,3.31.08.32.06.6-.02.85.89,2.59,1.97,5.12,2.3,7.85.03.22-.03.43-.13.62l1.31,4.55,5.7-1.63Z"/>
      <path class="cls-1" d="M515.39,141.39l.52-1.89c-.08.12-.16.25-.26.36-.41.49-.43,1.05-.26,1.53Z"/>
      <path class="cls-1" d="M517.86,130.86c-.15.6-.25,1.22-.34,1.83-.24.07-.45.18-.62.36-.27.29-.44.65-.44,1.06,0,.94-.22,1.87-.22,2.81,0,.15.03.3.08.44-.26.69-.43,1.38-.39,2.06l3.24-11.83h-.47c-.3,1.09-.57,2.19-.84,3.28Z"/>
      <path class="cls-1" d="M516.24,136.92c0-.94.22-1.87.22-2.81,0-.41.17-.77.44-1.06.17-.18.38-.29.62-.36.09-.61.19-1.23.34-1.83.27-1.09.54-2.19.84-3.28h-6.71v-5.92l-4.09,14.28-3.94-1.13-2.8,10.22,12.31,3.37,1.92-7.01c-.17-.48-.15-1.04.26-1.53.09-.11.18-.24.26-.36l.02-.09c-.04-.67.13-1.36.39-2.06-.05-.14-.08-.29-.08-.44Z"/>
      <polygon class="cls-1" points="523.73 110.92 524.14 109.39 516.14 107.2 515.07 110.92 523.73 110.92"/>
      <polygon class="cls-1" points="511.84 106.03 516.14 107.2 517.22 103.4 511.96 101.89 507.93 115.94 509.12 115.94 511.84 106.03"/>
      <polygon class="cls-1" points="506.32 121.55 502.63 134.43 503.96 134.81 507.59 121.55 506.32 121.55"/>
      <polygon class="cls-1" points="509.12 115.94 511.99 115.95 511.99 110.92 515.07 110.92 516.14 107.2 511.84 106.03 509.12 115.94"/>
      <polygon class="cls-1" points="507.59 121.55 503.96 134.81 507.9 135.94 511.99 121.66 511.99 121.56 507.59 121.55"/>
      <polygon class="cls-1" points="522.35 115.96 544.83 115.99 543.43 110.92 523.73 110.92 522.79 114.36 522.35 115.96"/>
      <polygon class="cls-1" points="520.81 121.58 519.17 127.59 547.99 127.59 546.29 121.64 520.81 121.58"/>
      <polygon class="cls-1" points="543.43 110.92 544.83 115.99 550.2 116 550.2 110.92 543.43 110.92"/>
      <polygon class="cls-1" points="523.73 110.92 523.73 110.92 522.79 114.36 523.73 110.92"/>
      <path class="cls-1" d="M547.24,121.64h-.96s1.7,5.94,1.7,5.94h.49c-.24-2.03-.35-4.07-1.24-5.94Z"/>
      <path class="cls-1" d="M548.48,127.59h1.72v-5.94h-2.96c.88,1.86,1,3.91,1.24,5.94Z"/>
      <polygon class="cls-1" points="522.34 115.96 522.35 115.96 522.79 114.36 522.34 115.96"/>
      <path class="cls-1" d="M520.65,121.58c-.18.52-.37,1.03-.57,1.54-.09.24-.12.45-.1.65-.16.34-.3.68-.42,1.02-.32.91-.6,1.85-.86,2.79h.47l1.64-6.01h-.16Z"/>
      <polygon class="cls-1" points="513.63 115.95 522.34 115.96 522.79 114.36 523.73 110.92 515.07 110.92 513.63 115.95"/>
      <path class="cls-1" d="M511.99,121.66v5.92h6.71c.26-.94.54-1.88.86-2.79.12-.34.26-.68.42-1.02-.02-.2.01-.41.1-.65.2-.51.39-1.02.57-1.54l-8.63-.02-.03.1Z"/>
      <polygon class="cls-1" points="511.99 121.56 511.99 121.66 512.02 121.56 511.99 121.56"/>
      <polygon class="cls-1" points="511.99 110.92 511.99 115.95 513.63 115.95 515.07 110.92 511.99 110.92"/>
    </g>
    <polygon class="cls-3" points="652.11 119.25 625.33 96.05 625.33 142.45 652.11 119.25"/>
    <polygon class="cls-3" points="621.19 116.1 624.53 116.1 624.53 121.8 621.19 121.8 621.19 146.04 625.33 142.45 625.33 96.05 621.19 92.47 621.19 116.1"/>
    <path class="cls-3" d="M615.1,116.1v5.7h6.09v-5.7h-6.09Z"/>
    <path class="cls-3" d="M615.1,116.1v5.7h0v-5.7h0Z"/>
    <rect class="cls-3" x="621.19" y="116.1" width="3.34" height="5.7"/>
  </g>
  <rect class="cls-4" x="129.26" width="1.33" height="1.33"/>
</svg>
